<svg id="christening" enable-background="new 0 0 300 300" height="128" viewBox="0 0 300 300" width="128" xmlns="http://www.w3.org/2000/svg"><circle cx="123.141" cy="142.031" fill="#e5efef" r="86"/><path d="m169.141 72.031c-2.209 0-4-1.791-4-4v-32c0-2.209 1.791-4 4-4s4 1.791 4 4v32c0 2.209-1.791 4-4 4z" fill="#4c241d"/><path d="m176.107 48.031h-13.93c-2.209 0-4-1.791-4-4s1.791-4 4-4h13.93c2.209 0 4 1.791 4 4s-1.791 4-4 4z" fill="#4c241d"/><path d="m141.141 165.433v75.034c0 12.98-10.803 23.503-24.129 23.503-13.326 0-24.129-10.523-24.129-23.503v-73.965z" fill="#6b4f5b"/><path d="m117.013 267.969c-15.51 0-28.129-12.338-28.129-27.503v-73.965c0-2.175 1.737-3.951 3.912-3.999l48.257-1.068c1.089-.021 2.117.388 2.885 1.14.77.752 1.203 1.783 1.203 2.859v75.033c0 15.165-12.618 27.503-28.128 27.503zm-20.129-97.555v70.053c0 10.754 9.03 19.503 20.129 19.503s20.128-8.749 20.128-19.503v-70.943z" fill="#4c241d"/><circle cx="115.592" cy="99.643" fill="#ffded5" r="17.286"/><path d="m115.591 120.928c-11.737 0-21.286-9.549-21.286-21.285 0-11.737 9.549-21.286 21.286-21.286s21.286 9.549 21.286 21.286c0 11.736-9.549 21.285-21.286 21.285zm0-34.571c-7.326 0-13.286 5.96-13.286 13.286 0 7.325 5.96 13.285 13.286 13.285s13.286-5.96 13.286-13.285c0-7.326-5.96-13.286-13.286-13.286z" fill="#4c241d"/><path d="m99.239 131.761-12.194 10.21c-3.736 3.128-5.903 7.808-5.903 12.748v30.934c0 5.236 2.867 10.031 7.422 12.415l19.678 10.297h18.067l19.678-10.297c4.556-2.384 7.422-7.179 7.422-12.415v-30.934c0-4.94-2.167-9.62-5.903-12.748l-12.194-10.21c-2.904-2.431-6.512-3.756-10.231-3.756h-15.61c-3.72 0-7.328 1.325-10.232 3.756z" fill="#9dc1e4"/><path d="m126.308 212.366h-18.067c-.646 0-1.282-.156-1.854-.456l-19.678-10.298c-5.902-3.088-9.568-9.203-9.568-15.959v-30.934c0-6.147 2.674-11.912 7.335-15.815l12.194-10.21v.001c3.611-3.024 8.156-4.689 12.799-4.689h15.61c4.642 0 9.187 1.665 12.798 4.689l12.194 10.209c4.662 3.903 7.335 9.668 7.335 15.815v30.934c0 6.756-3.666 12.871-9.568 15.959l-19.678 10.298c-.57.299-1.206.456-1.852.456zm-17.083-8h16.1l18.807-9.842c3.255-1.703 5.277-5.103 5.277-8.871v-30.934c0-3.773-1.629-7.302-4.471-9.681l-12.194-10.21c-2.174-1.821-4.895-2.823-7.663-2.823h-15.61c-2.768 0-5.489 1.002-7.663 2.822v.001l-12.194 10.21c-2.842 2.379-4.471 5.907-4.471 9.681v30.934c0 3.769 2.022 7.168 5.277 8.871zm-9.986-72.605h.01z" fill="#4c241d"/><circle cx="221.106" cy="99.643" fill="#ffded5" r="17.286"/><path d="m221.106 120.928c-11.737 0-21.286-9.549-21.286-21.285 0-11.737 9.549-21.286 21.286-21.286s21.286 9.549 21.286 21.286c-.001 11.736-9.55 21.285-21.286 21.285zm0-34.571c-7.326 0-13.286 5.96-13.286 13.286 0 7.325 5.96 13.285 13.286 13.285s13.286-5.96 13.286-13.285c-.001-7.326-5.961-13.286-13.286-13.286z" fill="#4c241d"/><path d="m241.141 204.964v36.933c0 11.126-8.954 20.145-20 20.145-11.046 0-20-9.019-20-20.145v-36.228z" fill="#ffded5"/><path d="m221.142 266.042c-13.234 0-24-10.832-24-24.146v-36.229c0-2.182 1.748-3.961 3.93-3.999l40-.705c1.055-.062 2.108.394 2.874 1.146s1.197 1.78 1.197 2.854v36.934c-.002 13.313-10.768 24.145-24.001 24.145zm-16.001-56.444v32.299c0 8.902 7.178 16.146 16 16.146s16-7.243 16-16.146v-32.862z" fill="#4c241d"/><path d="m202.05 132.624c-8.15 6.962-12.908 17.601-12.908 28.862v34.229h64v-34.229c0-11.261-4.758-21.9-12.908-28.862-3.483-2.975-7.787-4.593-12.218-4.593h-13.746c-4.433 0-8.737 1.617-12.22 4.593z" fill="#f53e28"/><path d="m253.141 199.714h-64c-2.209 0-4-1.791-4-4v-34.229c0-12.507 5.216-24.136 14.311-31.903 4.191-3.58 9.453-5.552 14.816-5.552h13.747c5.364 0 10.625 1.972 14.816 5.552 9.094 7.768 14.31 19.396 14.31 31.903v34.229c0 2.209-1.791 4-4 4zm-60-8h56v-30.229c0-10.163-4.194-19.575-11.506-25.821-2.743-2.343-6.16-3.634-9.62-3.634h-13.747c-3.46 0-6.877 1.291-9.62 3.634-7.313 6.247-11.507 15.658-11.507 25.821zm8.909-59.09h.01z" fill="#4c241d"/><path d="m236.742 168.88 22.117 59.587h-73.916l22.117-59.587" fill="#f53e28"/><path d="m258.859 232.466h-73.916c-1.31 0-2.536-.641-3.284-1.716s-.922-2.448-.466-3.676l22.117-59.587c.769-2.071 3.07-3.126 5.142-2.358 2.071.769 3.126 3.071 2.358 5.142l-20.115 54.195h62.413l-20.115-54.195c-.769-2.07.287-4.373 2.358-5.142 2.071-.768 4.374.287 5.142 2.358l22.117 59.587c.456 1.228.282 2.601-.466 3.676-.749 1.076-1.976 1.716-3.285 1.716z" fill="#4c241d"/><path d="m171.141 164.031c-9.941 0-18-8.059-18-18v-16c0-9.941 8.059-18 18-18 9.941 0 18 8.059 18 18v16c0 9.941-8.058 18-18 18z" fill="#fff"/><path d="m171.142 168.031c-12.131 0-22-9.869-22-22v-16c0-12.131 9.869-22 22-22s22 9.869 22 22v16c-.001 12.131-9.87 22-22 22zm0-52c-7.72 0-14 6.28-14 14v16c0 7.72 6.28 14 14 14 7.719 0 14-6.28 14-14v-16c-.001-7.72-6.281-14-14-14z" fill="#4c241d"/><path d="m153.145 152.032c-1.34 0-2.649-.674-3.406-1.896-1.162-1.879-.582-4.344 1.297-5.506l34.473-21.327c1.88-1.164 4.344-.58 5.506 1.297 1.162 1.879.582 4.344-1.297 5.506l-34.473 21.327c-.655.405-1.382.599-2.1.599z" fill="#4c241d"/><circle cx="171.141" cy="98.031" fill="#ffded5" r="11.718"/><path d="m171.141 113.749c-8.667 0-15.718-7.051-15.718-15.718s7.051-15.718 15.718-15.718 15.718 7.051 15.718 15.718-7.051 15.718-15.718 15.718zm0-23.436c-4.255 0-7.718 3.462-7.718 7.718s3.462 7.718 7.718 7.718 7.718-3.462 7.718-7.718-3.462-7.718-7.718-7.718z" fill="#4c241d"/><path d="m137.141 200.031-4-20v-24" fill="#6b4f5b"/><path d="m137.137 204.032c-1.868 0-3.538-1.315-3.918-3.217l-4-20c-.052-.258-.078-.521-.078-.784v-24c0-2.209 1.791-4 4-4s4 1.791 4 4v23.604l3.922 19.612c.433 2.166-.972 4.273-3.138 4.706-.264.053-.528.079-.788.079z" fill="#4c241d"/><path d="m97.141 200.031 4-20v-24" fill="#6b4f5b"/><path d="m97.146 204.032c-.26 0-.524-.025-.789-.079-2.166-.433-3.571-2.54-3.138-4.706l3.922-19.612v-23.604c0-2.209 1.791-4 4-4s4 1.791 4 4v24c0 .264-.026.526-.078.784l-4 20c-.38 1.901-2.05 3.217-3.917 3.217z" fill="#4c241d"/></svg>