<svg height="128" viewBox="0 0 128 128" width="128" xmlns="http://www.w3.org/2000/svg"><g><g><path d="m44.684 51.335 3.56 62.34q-2.94.12-6 .12t-6-.12l3.556-62.34z" fill="#f3d232"/><path d="m28.309 61.246c6.266 2.308 10.5 7.5 10.243 12.007h7.384c-.257-4.506 3.976-9.7 10.243-12.007z" fill="#bba227"/><path d="m57.167 121.5-1.7-5.624c-1.259-4.164-3.912-6.813-6.823-6.813h-12.8c-2.911 0-5.565 2.649-6.823 6.813l-1.7 5.624z" fill="#bba227"/><path d="m74.592 6.5h-64.692a3.363 3.363 0 0 0 -3.4 3.436 2.84 2.84 0 0 0 .634 1.773 15.67 15.67 0 0 1 3.645 10.035v11.294a31.462 31.462 0 0 0 62.924 0v-11.294a15.669 15.669 0 0 1 3.647-10.035 2.841 2.841 0 0 0 .635-1.773 3.364 3.364 0 0 0 -3.393-3.436z" fill="#f3d232"/><path d="m51.344 29.496h-5.757v-5.913h-6.686v5.913h-5.757v6.686h5.757v11.235h6.686v-11.235h5.757z" fill="#eaeaf0"/><path d="m121.5 113.18c0 7.769-17.409 8.32-38.881 8.32s-38.869-.551-38.869-8.32c0-4.82 6.713-11.293 16.95-15.5a92.46 92.46 0 0 0 4.763 8.744 91.993 91.993 0 0 0 .631-10.638 58.074 58.074 0 0 1 12.806-2.276 92.145 92.145 0 0 0 3.73 14.345 91.362 91.362 0 0 0 3.719-14.345 58.31 58.31 0 0 1 12.819 2.272 91.725 91.725 0 0 0 .632 10.638 90.945 90.945 0 0 0 4.751-8.744c10.236 4.224 16.949 10.684 16.949 15.504z" fill="#e2a76f"/></g><g fill="#331204"><path d="m73.706 25.729a1.75 1.75 0 0 0 -1.75 1.75v2.146a1.75 1.75 0 0 0 3.5 0v-2.146a1.75 1.75 0 0 0 -1.75-1.75z"/><path d="m63.771 42.973a23.72 23.72 0 0 1 -5.061 7.1 1.75 1.75 0 0 0 2.432 2.527 27.225 27.225 0 0 0 5.8-8.15 1.75 1.75 0 1 0 -3.175-1.472z"/><path d="m38.9 49.167h6.686a1.749 1.749 0 0 0 1.75-1.75v-9.485h4.007a1.75 1.75 0 0 0 1.75-1.75v-6.682a1.749 1.749 0 0 0 -1.75-1.75h-4.006v-4.167a1.749 1.749 0 0 0 -1.75-1.75h-6.687a1.75 1.75 0 0 0 -1.75 1.75v4.163h-4.006a1.749 1.749 0 0 0 -1.75 1.75v6.686a1.75 1.75 0 0 0 1.75 1.75h4.007v9.485a1.75 1.75 0 0 0 1.749 1.75zm-4.006-14.735v-3.186h4.006a1.749 1.749 0 0 0 1.75-1.75v-4.163h3.186v4.167a1.749 1.749 0 0 0 1.75 1.75h4.007v3.186h-4.006a1.749 1.749 0 0 0 -1.75 1.75v9.485h-3.186v-9.489a1.749 1.749 0 0 0 -1.75-1.75z"/><path d="m118.188 104.047a1.75 1.75 0 0 0 -2.4 2.549c2.517 2.367 3.96 4.767 3.96 6.584 0 6.57-22.345 6.57-37.131 6.57s-37.119 0-37.119-6.57c0-3.389 5.021-9.046 14.36-13.239 2.151 4.3 4.038 7.281 4.126 7.418a1.75 1.75 0 0 0 3.212-.71 91.684 91.684 0 0 0 .634-9.542 56.374 56.374 0 0 1 9.627-1.731 93.7 93.7 0 0 0 3.527 13.077 1.75 1.75 0 0 0 3.289 0 92.646 92.646 0 0 0 3.518-13.077 56.6 56.6 0 0 1 9.637 1.732 91.888 91.888 0 0 0 .633 9.542 1.75 1.75 0 0 0 3.213.709c.088-.138 1.973-3.118 4.115-7.415a46.168 46.168 0 0 1 4.8 2.5 1.75 1.75 0 1 0 1.8-3 50.911 50.911 0 0 0 -6.772-3.383 1.747 1.747 0 0 0 -2.247.865c-.656 1.377-1.308 2.652-1.908 3.777-.082-1.462-.141-3.136-.144-4.921a1.75 1.75 0 0 0 -1.254-1.682 59.943 59.943 0 0 0 -13.2-2.34 1.742 1.742 0 0 0 -1.836 1.457 85.852 85.852 0 0 1 -1.993 8.784 86.216 86.216 0 0 1 -2-8.787 1.736 1.736 0 0 0 -1.836-1.454 59.717 59.717 0 0 0 -13.199 2.34 1.75 1.75 0 0 0 -1.252 1.674c0 1.787-.064 3.464-.146 4.929-.6-1.126-1.259-2.4-1.919-3.786a1.746 1.746 0 0 0 -2.245-.863 46.484 46.484 0 0 0 -10.7 6.042l-1.654-28.816c0-.043.009-.086.006-.13-.19-3.18 2.61-6.97 6.81-9.23.04-.02.09-.04.13-.06.1-.052.2-.1.3-.151.527-.219 1.046-.453 1.559-.7.1-.04.191-.082.3-.121a1.744 1.744 0 0 0 .405-.222 33.243 33.243 0 0 0 18.19-27.422 1.75 1.75 0 0 0 -3.492-.228 29.714 29.714 0 0 1 -59.361-1.978v-11.294a17.459 17.459 0 0 0 -4.044-11.144 1.111 1.111 0 0 1 -.235-.73 1.485 1.485 0 0 1 .426-1.1 1.692 1.692 0 0 1 1.222-.52h64.7a1.7 1.7 0 0 1 1.217.52 1.5 1.5 0 0 1 .426 1.115 1.089 1.089 0 0 1 -.229.7 17.459 17.459 0 0 0 -4.051 11.155v.26a1.75 1.75 0 0 0 3.5 0v-.256a13.964 13.964 0 0 1 3.237-8.923 4.6 4.6 0 0 0 1.033-2.814 4.959 4.959 0 0 0 -1.4-3.662 5.211 5.211 0 0 0 -3.74-1.595h-64.693a5.216 5.216 0 0 0 -3.743 1.6 4.94 4.94 0 0 0 -1.4 3.64 4.609 4.609 0 0 0 1.039 2.843 13.959 13.959 0 0 1 3.238 8.915v11.29a33.243 33.243 0 0 0 18.304 29.662 1.683 1.683 0 0 0 .372.194l.028.012c.63.307 1.272.591 1.922.859.065.033.137.064.2.1.04.02.08.04.13.06 4.2 2.26 7 6.05 6.81 9.23v.029l-.969 16.932a1.75 1.75 0 0 0 1.647 1.847q.051 0 .1 0a1.75 1.75 0 0 0 1.745-1.65l.877-15.313h4.075l1.725 30.09a20.181 20.181 0 0 0 -1.824 2.22h-5.823l.553-9.667a1.75 1.75 0 1 0 -3.494-.2l-.569 9.95c-3.311.5-6.13 3.455-7.5 7.98l-1.7 5.62a1.749 1.749 0 0 0 1.674 2.257h29.853a1.753 1.753 0 0 0 1.4-.7c.021-.028.033-.06.051-.089 6.564.682 14.751.794 23.994.794 23.791 0 40.631-.723 40.631-10.07.004-2.866-1.746-6.024-5.058-9.138zm-75.943-37.797a33.179 33.179 0 0 0 4.527-.318 12.41 12.41 0 0 0 -2.492 5.568h-4.07a12.431 12.431 0 0 0 -2.505-5.571 33.323 33.323 0 0 0 4.54.321zm-12.567 53.5 1.016-3.363c1.025-3.388 3.044-5.577 5.146-5.577h6.546a8.046 8.046 0 0 0 -.386 2.37c0 2.984 1.723 5.087 4.834 6.57z"/></g></g></svg>