<svg id="Layer_3" enable-background="new 0 0 64 64" height="128" viewBox="0 0 64 64" width="128" xmlns="http://www.w3.org/2000/svg"><path d="m57 60v-3l-.078-.118c-1.272-1.907-2.206-4.019-2.762-6.243l-.16-.639-.16.639c-.556 2.224-1.49 4.336-2.762 6.243l-.078.118v3" fill="#669e4f"/><path d="m50 62c0-2.518-1.186-4.889-3.2-6.4l-.8-.6.978.14c3.586.512 6.427 3.287 7.022 6.86" fill="#78b75b"/><path d="m58 62c0-2.518 1.186-4.889 3.2-6.4l.8-.6-.978.14c-3.586.512-6.427 3.287-7.022 6.86" fill="#78b75b"/><path d="m13 60v-3l-.078-.118c-1.272-1.907-2.206-4.019-2.762-6.243l-.16-.639-.16.639c-.556 2.224-1.49 4.336-2.762 6.243l-.078.118v3" fill="#669e4f"/><path d="m6 62c0-2.518-1.186-4.889-3.2-6.4l-.8-.6.978.14c3.586.512 6.427 3.287 7.022 6.86" fill="#78b75b"/><path d="m14 62c0-2.518 1.186-4.889 3.2-6.4l.8-.6-.978.14c-3.586.512-6.427 3.287-7.022 6.86" fill="#78b75b"/><path d="m22 59v-8h-4v-21c0-7.732 6.268-14 14-14 7.732 0 14 6.268 14 14v21h-4v8" fill="#4d5d7a"/><path d="m41 30.5c0-5.123-1.644-9.859-4.427-13.721-1.435-.496-2.969-.779-4.573-.779-7.732 0-14 6.268-14 14v21h4v2.565c10.825-2.1 19-11.626 19-23.065z" fill="#8892a0"/><path d="m47 62-1.102-.944c-3.806-3.263-8.653-5.056-13.666-5.056h-.463c-5.013 0-9.861 1.793-13.667 5.056l-1.102.944" fill="#78b75b"/><path d="m1 61h62v2h-62z"/><path d="m46.349 62.759-1.102-.944c-3.622-3.105-8.244-4.815-13.016-4.815h-.463c-4.771 0-9.394 1.71-13.016 4.814l-1.102.944-1.302-1.518 1.102-.944c3.985-3.415 9.07-5.296 14.319-5.296h.463c5.249 0 10.333 1.881 14.318 5.297l1.102.944z"/><path d="m9.014 62.164c-.365-2.188-1.669-4.024-3.491-5.096.949 1.451 1.477 3.166 1.477 4.932h-2c0-2.192-1.047-4.285-2.8-5.601l-.8-.599c-.366-.273-.499-.761-.324-1.183.174-.422.615-.674 1.065-.607l.979.14c4.036.577 7.197 3.666 7.867 7.687z"/><path d="m10.986 62.164-1.973-.328c.67-4.021 3.831-7.109 7.866-7.687l.979-.14c.451-.066.89.186 1.065.607s.042.909-.324 1.183l-.8.6c-1.752 1.316-2.799 3.409-2.799 5.601h-2c0-1.766.528-3.481 1.477-4.933-1.822 1.073-3.126 2.91-3.491 5.097z"/><path d="m12.168 57.555-.078-.117c-.843-1.265-1.542-2.606-2.09-4.012-.548 1.405-1.247 2.747-2.09 4.012l-.078.117-1.664-1.109.078-.117c1.211-1.817 2.094-3.813 2.624-5.932l.16-.639c.111-.446.511-.758.97-.758s.859.312.97.758l.16.639c.53 2.118 1.413 4.114 2.624 5.932l.078.117z"/><path d="m53.014 62.164c-.365-2.188-1.669-4.024-3.491-5.096.949 1.451 1.477 3.166 1.477 4.932h-2c0-2.192-1.047-4.285-2.8-5.601l-.8-.599c-.366-.273-.499-.761-.324-1.183s.611-.674 1.065-.607l.979.14c4.036.577 7.197 3.666 7.867 7.687z"/><path d="m54.986 62.164-1.973-.328c.67-4.021 3.831-7.109 7.866-7.687l.979-.14c.448-.066.89.186 1.065.607s.042.909-.324 1.183l-.8.6c-1.752 1.316-2.799 3.409-2.799 5.601h-2c0-1.766.528-3.481 1.477-4.933-1.822 1.073-3.126 2.91-3.491 5.097z"/><path d="m56.168 57.555-.078-.117c-.843-1.265-1.542-2.606-2.09-4.012-.548 1.405-1.247 2.747-2.09 4.012l-.078.117-1.664-1.109.078-.117c1.211-1.817 2.094-3.813 2.624-5.932l.16-.639c.111-.446.511-.758.97-.758s.859.312.97.758l.16.639c.53 2.118 1.413 4.114 2.624 5.932l.078.117z"/><path d="m53 5h8v2h-8z"/><path d="m56.03 6.242c-.478-1.909-2.185-3.242-4.153-3.242h-.877v-2h.877c2.887 0 5.393 1.956 6.093 4.758z"/><path d="m57.97 6.242-1.94-.484c.7-2.802 3.206-4.758 6.093-4.758h.877v2h-.877c-1.968 0-3.675 1.333-4.153 3.242z"/><path d="m51 19h8v2h-8z"/><path d="m54.03 20.242c-.478-1.909-2.185-3.242-4.153-3.242h-.877v-2h.877c2.887 0 5.393 1.956 6.093 4.758z"/><path d="m55.97 20.242-1.94-.484c.7-2.802 3.206-4.758 6.093-4.758h.877v2h-.877c-1.968 0-3.675 1.333-4.153 3.242z"/><path d="m3 5h8v2h-8z"/><path d="m7.97 6.242-1.94-.484c.7-2.802 3.206-4.758 6.093-4.758h.877v2h-.877c-1.968 0-3.675 1.333-4.153 3.242z"/><path d="m6.03 6.242c-.478-1.909-2.185-3.242-4.153-3.242h-.877v-2h.877c2.887 0 5.393 1.956 6.093 4.758z"/><path d="m5 19h8v2h-8z"/><path d="m9.97 20.242-1.94-.484c.7-2.802 3.206-4.758 6.093-4.758h.877v2h-.877c-1.968 0-3.675 1.333-4.153 3.242z"/><path d="m8.03 20.242c-.478-1.909-2.185-3.242-4.153-3.242h-.877v-2h.877c2.887 0 5.393 1.956 6.093 4.758z"/><path d="m43 59h-2v-8c0-.553.448-1 1-1h3v-20c0-7.168-5.832-13-13-13s-13 5.832-13 13v20h3c.552 0 1 .447 1 1v8h-2v-7h-3c-.552 0-1-.447-1-1v-21c0-8.271 6.729-15 15-15s15 6.729 15 15v21c0 .553-.448 1-1 1h-3z"/><path d="m43 30h-2c0-4.963-4.038-9-9-9s-9 4.037-9 9h-2c0-6.065 4.935-11 11-11s11 4.935 11 11z"/><path d="m31 23h2v16h-2z"/><path d="m27 27h10v2h-10z"/><path d="m21 46h22v2h-22z"/><path d="m25 50h14v2h-14z"/></svg>